# xmcd
#
# Track frame offsets:
#	150
#	20380
#	36147
#	56453
#	72605
#	97118
#	108713
#	121323
#	137042
#	148808
#	167184
#	188325
#	207585
#
# Disc length: 3216 seconds
# Revision: 0
# Processed by: cddbd v1.5.2PL0 Copyright (c) Steve Scherf et al.
# Submitted via: dBpowerAMP V12.0
#
DISCID=c50c8e0d
DTITLE=Dennis Jones - My Kinda Blues
DYEAR=1900
DGENRE=Blues
TTITLE0=Jesus or the Bottle
TTITLE1=Same Train
TTITLE2=My Kinda Blues
TTITLE3=Text Us Girl
TTITLE4=You Took My Baby
TTITLE5=I Want You
TTITLE6=Never Go Away
TTITLE7=Best That I Can
TTITLE8=They Say
TTITLE9=Good For Me
TTITLE10=One More Dance
TTITLE11=Devil's Nightmare
TTITLE12=Baltimore Blues
EXTD=
EXTT0=
EXTT1=
EXTT2=
EXTT3=
EXTT4=
EXTT5=
EXTT6=
EXTT7=
EXTT8=
EXTT9=
EXTT10=
EXTT11=
EXTT12=
PLAYORDER=
